<svg width="24" height="24" viewBox="0 0 24 24" fill="none" xmlns="http://www.w3.org/2000/svg">
<path d="M4 12C4 7.58172 7.58172 4 12 4C16.4183 4 20 7.58172 20 12C20 16.4183 16.4183 20 12 20C7.58172 20 4 16.4183 4 12Z" fill="#000000"/>
<path fill-rule="evenodd" clip-rule="evenodd" d="M9.28027 8.21937C8.98739 7.92647 8.51254 7.92647 8.21966 8.21937C7.92678 8.51228 7.92678 8.98718 8.21966 9.28008L10.9393 12L8.21966 14.7199C7.92678 15.0128 7.92678 15.4877 8.21966 15.7806C8.51254 16.0735 8.98739 16.0735 9.28027 15.7806L11.9999 13.0607L14.7194 15.7804C15.0123 16.0733 15.4871 16.0733 15.78 15.7804C16.0729 15.4875 16.0729 15.0126 15.78 14.7197L13.0606 12L15.78 9.28032C16.0729 8.98741 16.0729 8.51251 15.78 8.21961C15.4871 7.9267 15.0123 7.9267 14.7194 8.21961L11.9999 10.9393L9.28027 8.21937Z" fill="#FFFFFF"/>
</svg>
